# xmcd
# 
# Track frame offsets:
#     150
#     19030
#     30632
#     44559
#     58243
#     71132
#     84572
#     100654
#     115729
#     129570
#     144406
#     158449
#     173754
#     186911
#     200744
#     213494
# 
# Disc length: 3137
# 
# Revision: 0
# Processed by: cddbd v1.5.2PL0 Copyright (c) Steve Scherf et al.
# Submitted via: fre:ac v1.0.17
# 
DISCID=e30c3f10
DTITLE=ataide e alexandre - mala amarela
DYEAR=2006
DGENRE=Country
TTITLE0=01 Faixa 1
TTITLE1=02 Faixa 2
TTITLE2=03 Faixa 3
TTITLE3=04 Faixa 4
TTITLE4=05 Faixa 5
TTITLE5=06 Faixa 6
TTITLE6=07 Faixa 7
TTITLE7=08 Faixa 8
TTITLE8=09 Faixa 9
TTITLE9=10 Faixa 10
TTITLE10=11 Faixa 11
TTITLE11=12 Faixa 12
TTITLE12=13 Faixa 13
TTITLE13=14 Faixa 14
TTITLE14=15 Faixa 15
TTITLE15=16 Faixa 16
EXTD=total sertanejo
EXTT0=lock
EXTT1=
EXTT2=
EXTT3=
EXTT4=
EXTT5=
EXTT6=
EXTT7=
EXTT8=
EXTT9=
EXTT10=
EXTT11=
EXTT12=
EXTT13=
EXTT14=
EXTT15=
PLAYORDER=
